<?xml version="1.0" encoding="UTF-8"?>
<svg width="30px" height="30px" viewBox="0 0 30 30" version="1.1" xmlns="http://www.w3.org/2000/svg" xmlns:xlink="http://www.w3.org/1999/xlink">
    <!-- Generator: Sketch 46.1 (44463) - http://www.bohemiancoding.com/sketch -->
    <title>Group 3</title>
    <desc>Created with Sketch.</desc>
    <defs></defs>
    <g id="Welcome" stroke="none" stroke-width="1" fill="none" fill-rule="evenodd">
        <g id="Duft-&amp;-Co.-Brickhouse" transform="translate(-1224.000000, -42.000000)" fill="#FFFFFF">
            <g id="Group-29" transform="translate(0.000000, -1.000000)">
                <g id="Group-18" transform="translate(1224.000000, 42.000000)">
                    <g id="Page-1" transform="translate(0.000000, 1.000000)">
                        <g id="Group-3" transform="translate(0.000000, 0.049381)">
                            <path d="M14.7921632,0.00934196765 C10.7748822,0.00934196765 10.2710853,0.0263700671 8.69340257,0.0983578253 C7.11889055,0.170169431 6.04365415,0.420247622 5.10270486,0.785940737 C4.13004808,1.16390583 3.30506602,1.6696991 2.48272626,2.49203886 C1.66032777,3.31443735 1.15459322,4.13936069 0.77656941,5.11201747 C0.410876296,6.05296676 0.160856822,7.12820316 0.0889864989,8.70271518 C0.0169987406,10.2804567 2.93587921e-05,10.7841361 2.93587921e-05,14.8014758 C2.93587921e-05,18.8188155 0.0169987406,19.3225536 0.0889864989,20.9002951 C0.160856822,22.4747484 0.410876296,23.5500435 0.77656941,24.4909341 C1.15459322,25.4635909 1.66032777,26.2885729 2.48272626,27.1109127 C3.30506602,27.9333112 4.13004808,28.4390457 5.10270486,28.8171283 C6.04365415,29.1827627 7.11889055,29.4328409 8.69340257,29.5047112 C10.2710853,29.5766402 10.7748822,29.5936683 14.7921632,29.5936683 C18.8095029,29.5936683 19.3131823,29.5766402 20.8909238,29.5047112 C22.4654358,29.4328409 23.5406722,29.1827627 24.4816215,28.8171283 C25.454337,28.4390457 26.2792603,27.9333112 27.1016001,27.1109127 C27.9239986,26.2885729 28.4297331,25.4636496 28.8077569,24.4909341 C29.1734501,23.5500435 29.4235283,22.4747484 29.4953399,20.9002951 C29.5673276,19.3225536 29.5843557,18.8188155 29.5843557,14.8014758 C29.5843557,10.7841948 29.5673276,10.2804567 29.4953399,8.70271518 C29.4235283,7.12820316 29.1734501,6.05296676 28.8077569,5.11201747 C28.4297331,4.13936069 27.9239986,3.31443735 27.1016001,2.49203886 C26.2792603,1.6696991 25.454337,1.16390583 24.4816215,0.785940737 C23.5406722,0.420247622 22.4654358,0.170169431 20.8909238,0.0983578253 C19.3131823,0.0263700671 18.8095029,0.00934196765 14.7921632,0.00934196765 M14.7921632,2.67459183 C18.7418602,2.67459183 19.2096632,2.68962353 20.7694371,2.76078925 C22.2116584,2.82661166 22.9948923,3.06758862 23.5161283,3.27016429 C24.2065883,3.53850365 24.699405,3.85904294 25.2170005,4.37663845 C25.734596,4.89429267 26.0551353,5.38705064 26.3235334,6.07751071 C26.5260503,6.59874671 26.7670273,7.38198056 26.8328497,8.82420186 C26.9039567,10.3839758 26.9190471,10.8518375 26.9190471,14.8014758 C26.9190471,18.7511728 26.9039567,19.2190345 26.8328497,20.7787497 C26.7670273,22.2210297 26.5260503,23.0042636 26.3235334,23.5254996 C26.0551353,24.2159009 25.734596,24.7087176 25.2170005,25.2263131 C24.699405,25.7439673 24.2065883,26.0645066 23.5161283,26.332846 C22.9948923,26.5353629 22.2116584,26.7763986 20.7694371,26.8421623 C19.2098981,26.913328 18.7421538,26.9284185 14.7921632,26.9284185 C10.8421726,26.9284185 10.3744283,26.913328 8.81488926,26.8421623 C7.37266795,26.7763986 6.58937538,26.5353629 6.06813938,26.332846 C5.37773803,26.0645066 4.88492134,25.7439673 4.36732584,25.2263131 C3.84973033,24.7087176 3.52913232,24.2159009 3.26079296,23.5254996 C3.05827602,23.0042636 2.81729905,22.2210297 2.75147664,20.7788084 C2.68031093,19.2190345 2.66527922,18.7511728 2.66527922,14.8014758 C2.66527922,10.8518375 2.68031093,10.3839758 2.75147664,8.82420186 C2.81729905,7.38198056 3.05827602,6.59874671 3.26079296,6.07751071 C3.52913232,5.38705064 3.84973033,4.89429267 4.36732584,4.37669717 C4.88492134,3.85904294 5.37773803,3.53850365 6.06813938,3.27016429 C6.58937538,3.06758862 7.37266795,2.82661166 8.81483054,2.76078925 C10.3746632,2.68962353 10.8424662,2.67459183 14.7921632,2.67459183" id="Fill-1"></path>
                        </g>
                    </g>
                </g>
            </g>
        </g>
    </g>
</svg>