<?xml version="1.0" encoding="UTF-8"?>
<svg width="145px" height="147px" viewBox="0 0 145 147" version="1.1" xmlns="http://www.w3.org/2000/svg" xmlns:xlink="http://www.w3.org/1999/xlink">
    <!-- Generator: Sketch 46.1 (44463) - http://www.bohemiancoding.com/sketch -->
    <title>Page 1</title>
    <desc>Created with Sketch.</desc>
    <defs>
        <polygon id="path-1" points="78.328303 0.242323211 0.635140663 0.242323211 0.635140663 77.9366553 78.328303 77.9366553"></polygon>
    </defs>
    <g id="Welcome" stroke="none" stroke-width="1" fill="none" fill-rule="evenodd">
        <g id="Duft-&amp;-Co.-Brickhouse" transform="translate(-1031.000000, -3718.000000)">
            <g id="Group-10" transform="translate(882.000000, 3661.000000)">
                <g id="Page-1" transform="translate(149.000000, 57.000000)">
                    <path d="M0,89.8338887 L0,89.8385679 L56.6555534,146.491782 L113.315786,89.8362283 L56.6555534,33.1806749 L0,89.8338887 Z M4.50605368,89.8362283 L56.6555534,37.6843889 L108.809732,89.8362283 L56.6555534,141.985728 L4.50605368,89.8362283 Z" id="Fill-1" fill="#FEFEFE"></path>
                    <path d="M58.5068724,35.0296542 L111.4144,87.9395213 L135.116804,77.5143005 L67.769316,10.1668129 L58.5068724,35.0296542 Z M110.705504,91.7319995 L54.8056382,35.8344738 L67.1423055,5.03374859 L140.144586,78.0336899 L110.705504,91.7319995 Z" id="Fill-2" fill="#FEFEFE"></path>
                    <path d="M58.5068724,35.0296542 L111.4144,87.9395213 L116.407089,85.7426446 L115.780078,85.115634 L61.8478094,31.1810258 L69.0584311,11.4535883 L67.769316,10.1668129 L58.5068724,35.0296542 Z M110.705504,91.7319995 L54.8056382,35.8344738 L66.531672,6.56384158 L72.1747673,11.7249809 L65.6707023,29.1830145 L117.26104,82.0928815 L135.970755,73.8621978 L140.144586,78.0336899 L110.705504,91.7319995 Z" id="Fill-3" fill="#FEFEFE"></path>
                    <g id="Group-41" transform="translate(21.056326, 0.097970)">
                        <path d="M59.5875298,66.0124581 C46.446043,52.8709713 25.0645142,52.8709713 11.925367,66.0124581 C-1.21611978,79.1539449 -1.21611978,100.535474 11.925367,113.676961 C25.0645142,126.816108 46.446043,126.816108 59.5875298,113.676961 C72.726677,100.535474 72.726677,79.1539449 59.5875298,66.0124581 M10.573083,115.029245 C3.84441714,108.302918 0.140843422,99.3563195 0.140843422,89.8458791 C0.140843422,80.3307595 3.84441714,71.3865003 10.573083,64.6601741 C17.2994092,57.9338479 26.2413288,54.2279346 35.7541088,54.2279346 C45.2692284,54.2279346 54.2134876,57.9338479 60.9398138,64.6601741 C67.66614,71.3865003 71.3720534,80.3307595 71.3720534,89.8458791 C71.3720534,99.3563195 67.66614,108.302918 60.9398138,115.029245 C54.2134876,121.755571 45.2692284,125.461484 35.7541088,125.461484 C26.2413288,125.461484 17.2994092,121.755571 10.573083,115.029245" id="Fill-4" fill="#FEFEFE"></path>
                        <path d="M56.176405,69.4235829 C44.9182896,58.1631278 26.5946072,58.1631278 15.3341521,69.4235829 C4.07369713,80.6816983 4.07369713,99.0053807 15.3341521,110.265836 C26.5946072,121.526291 44.9182896,121.526291 56.176405,110.265836 C67.4368601,99.0053807 67.4368601,80.6816983 56.176405,69.4235829 M14.7726501,110.829677 C3.19868982,99.2580567 3.19868982,80.431362 14.7726501,68.8597413 C26.3419312,57.2881205 45.1686259,57.2881205 56.7402466,68.8597413 C68.3118674,80.431362 68.3118674,99.2580567 56.7402466,110.829677 C45.1686259,122.401298 26.3419312,122.401298 14.7726501,110.829677" id="Fill-6" fill="#FEFEFE"></path>
                        <path d="M34.4645258,76.0893137 C34.5347136,76.4004794 34.7686728,76.9315667 35.4845878,77.6474818 C36.1864653,78.3516989 36.7081943,78.5950164 37.0170204,78.6745625 C37.0614727,77.1608467 38.383342,75.6354329 38.7342807,75.256419 C38.8021289,74.9920451 38.996315,74.4282035 39.5157044,74.2597529 C39.9695852,74.1146982 40.4796162,74.3252615 41.0411182,74.8844239 C41.9956716,75.8413169 42.7115867,76.161841 42.9970169,76.058899 C43.1537695,76.0027488 43.2637303,75.7383749 43.2964846,75.3359651 C43.4696144,73.3496518 41.6540912,71.5107326 41.6353745,71.4920159 C41.6213369,71.4779784 40.028075,69.9198103 37.7422939,69.8332454 C37.3796571,69.8192078 37.122302,69.8847164 37.0684914,70.0040356 C36.9725682,70.2239572 37.2088669,70.958589 38.2453061,71.9950281 C38.7997893,72.5495114 39.0103526,73.0665612 38.8746563,73.5321399 C38.7108848,74.0796044 38.1353453,74.311224 37.8803298,74.3860909 C37.517693,74.7253317 35.9899396,76.0518802 34.4645258,76.0893137 M34.9184066,78.2089838 C33.3695969,76.6601741 33.6409895,75.6494704 33.678423,75.5395096 L33.7837046,75.2119668 L34.1229454,75.268117 C35.5758319,75.5161137 37.3819967,73.7614199 37.4007135,73.7450428 L37.4825992,73.663157 L37.5948996,73.6397611 C37.7329355,73.6070068 38.0581387,73.4783293 38.1096098,73.3051995 C38.1259869,73.2467097 38.1447036,73.0221089 37.6814645,72.5588697 C37.1386792,72.0137449 35.9197519,70.6450837 36.3385388,69.6858511 C36.4765747,69.3676666 36.8392114,69.0003507 37.7727085,69.0354446 C40.3766741,69.136047 42.1266888,70.855647 42.2015557,70.9281743 C42.285781,71.0147392 44.2954903,73.0525236 44.0919458,75.4061529 C44.0264372,76.161841 43.7503654,76.632099 43.2730887,76.8075683 C42.4027606,77.1234132 41.2703982,76.2437267 40.474937,75.4482655 C40.1076211,75.0809496 39.861964,74.987366 39.7637011,75.0177807 C39.6373632,75.0598933 39.5227232,75.3383047 39.4923085,75.5137741 L39.4735917,75.6377725 L39.3846872,75.7290165 C39.3683101,75.7477333 37.5902204,77.5796336 37.8358775,79.0301805 L37.8943673,79.3741005 L37.5598057,79.4770425 C37.4521845,79.5097968 36.4648768,79.7554539 34.9184066,78.2089838" id="Fill-8" fill="#FEFEFE"></path>
                        <path d="M53.0851025,97.3786626 C53.4500788,97.7436389 53.4570976,98.3238577 53.1084984,99.0982625 C52.537638,100.361642 52.4955254,101.145405 52.7107678,101.360648 C52.8254078,101.472948 53.1061588,101.477627 53.4804935,101.372346 C55.3919399,100.83424 56.4798501,98.4852895 56.491548,98.459554 C56.4985668,98.4408373 57.3946305,96.4007133 56.669357,94.2319117 C56.5710942,93.9418024 56.4728313,93.8014269 56.4073227,93.7359183 C56.3277766,93.6540326 56.2716264,93.6563722 56.2248346,93.6657305 C55.9160085,93.7218807 55.3474877,94.3091183 54.8234191,95.4648766 C54.5239514,96.126981 54.1496167,96.5013157 53.7121131,96.5832014 C53.3424576,96.64871 52.9704625,96.5059949 52.6359009,96.1714333 C52.5586943,96.0965663 52.5002045,96.024039 52.4557523,95.9678888 C52.1586242,95.8181549 51.2438438,95.3315198 50.5068724,94.596888 C50.1114814,94.1991574 49.8260512,93.7873893 49.6576006,93.3732816 C49.3932267,93.5487509 48.9767794,93.9558399 48.5603321,94.8752995 C48.1485639,95.7900798 48.1041117,96.3632798 48.136866,96.6767851 C49.5710357,96.1807916 51.466105,96.8803296 51.9457213,97.0745157 C52.1960576,97.044101 52.7388429,97.032403 53.0851025,97.3786626 L53.0851025,97.3786626 Z M47.7952856,97.7412993 L47.5800431,97.4652275 C47.512195,97.376323 46.9343158,96.5387492 47.8350586,94.5477566 C48.738141,92.5497453 49.781599,92.4468032 49.8962389,92.4421241 L50.2401589,92.4257469 L50.3056675,92.7626481 C50.3875532,93.1767559 50.6425687,93.6049011 51.0730536,94.0307068 C51.8451189,94.8027721 52.8768788,95.2870676 52.8885768,95.2917468 L52.9938584,95.3385386 L53.0546878,95.4368015 C53.0546878,95.4368015 53.110838,95.5210268 53.1997425,95.6075917 C53.265251,95.6731002 53.4313621,95.8228341 53.5670584,95.7970986 C53.6255482,95.7877402 53.838451,95.7081941 54.0981457,95.1373337 C54.3788967,94.5150023 55.1345848,93.0527575 56.0797799,92.8819673 C56.4073227,92.8211379 56.7255072,92.92408 56.9688248,93.1720767 C57.1559921,93.359244 57.3080656,93.6236179 57.4250451,93.9792358 C58.250921,96.4521843 57.2589341,98.6935132 57.2191611,98.7894364 C57.1676901,98.8993972 55.9674795,101.498684 53.6980755,102.139732 C53.007896,102.333918 52.4838274,102.261391 52.1492658,101.92215 C51.4707842,101.243668 51.8989295,99.8352339 52.3808854,98.7707197 C52.6031466,98.2770658 52.5961278,98.0150316 52.5212609,97.9425042 C52.4276772,97.846581 52.142247,97.8419018 51.9691172,97.8746561 L51.849798,97.898052 L51.7328185,97.8489206 C51.7094225,97.8395622 49.3674912,96.8218398 48.0970929,97.56583 L47.7952856,97.7412993 Z" id="Fill-10" fill="#FEFEFE"></path>
                        <path d="M31.0943439,106.65257 C31.0732876,106.923963 30.9703456,107.51354 30.4883897,107.766216 C30.0696028,107.983798 29.5268175,107.862139 28.8834298,107.403579 C27.781482,106.619816 27.0211147,106.420951 26.7567409,106.570685 C26.6116862,106.65257 26.5485172,106.930982 26.5812715,107.333391 C26.6771947,108.528923 27.4726559,109.556004 28.1230624,110.20641 C28.5254722,110.60882 28.8553546,110.845119 28.8576942,110.847458 C28.876411,110.859156 30.7059717,112.129555 32.9730361,111.837106 C33.3894834,111.783295 33.5743112,111.663976 33.6047259,111.568053 C33.6468385,111.446394 33.5626132,111.088436 32.9847341,110.510557 C32.7437561,110.26724 32.4513071,110.026262 32.1167455,109.787623 C31.9553137,109.672983 31.8149382,109.553664 31.6979586,109.436684 C31.2347194,108.975785 31.2019652,108.561677 31.2557758,108.297303 C31.3610574,107.780254 31.8523717,107.480786 32.0816517,107.368485 C32.383459,106.975434 33.6678948,105.412587 35.1675731,105.122477 C35.088027,104.93297 34.9289348,104.663917 34.6060711,104.341054 C34.4095454,104.146868 34.1732467,103.948002 33.901854,103.756156 C33.0923553,103.178277 32.5355324,103.026203 32.217348,102.995788 C32.4255716,104.500146 31.3774345,106.219746 31.0943439,106.65257 M27.5592208,110.770252 C26.8152307,110.023922 25.9027899,108.835409 25.7858103,107.39656 C25.7249809,106.640872 25.919167,106.128502 26.3636895,105.878165 C27.1661694,105.421945 28.4272094,106.102766 29.3443293,106.753173 C29.770135,107.05498 30.0274901,107.106451 30.1210738,107.05732 C30.2427325,106.994151 30.3035619,106.678306 30.3035619,106.526232 L30.3012223,106.399894 L30.3737497,106.294613 C30.3877872,106.273556 31.8359945,104.172603 31.351699,102.782886 L31.2393986,102.453003 L31.5505643,102.29625 C31.6511668,102.244779 32.5846639,101.83769 34.3650932,103.105749 C34.6715797,103.325671 34.9429723,103.550272 35.1675731,103.777212 C36.1221266,104.731765 36.04492,105.454699 36.0332221,105.534245 L35.9840907,105.873486 L35.6378311,105.873486 C34.4142246,105.873486 33.0759781,107.352108 32.6618704,107.920629 L32.5940222,108.016552 L32.486401,108.058665 C32.3249692,108.124173 32.0699537,108.299643 32.0371994,108.458735 C32.0091243,108.599111 32.165877,108.779259 32.2594606,108.875182 C32.3460255,108.959408 32.4536467,109.048312 32.5823243,109.139556 C32.9496402,109.401591 33.277183,109.672983 33.5485757,109.946715 C34.257472,110.653272 34.538223,111.303679 34.360414,111.825408 C34.2083405,112.265251 33.7755161,112.536643 33.0759781,112.627888 C30.4883897,112.962449 28.48102,111.556355 28.3967947,111.495525 C28.3804175,111.486167 28.0131016,111.224133 27.5592208,110.770252" id="Fill-12" fill="#FEFEFE"></path>
                        <path d="M19.5426098,94.5309116 C19.4677428,94.4583842 19.3156694,94.3484234 19.0115224,94.2431418 C17.1304907,93.5857165 14.9008598,94.8912087 14.8798034,94.9029066 C14.8587471,94.9146046 12.9589986,96.0750421 12.3085921,98.2672396 C12.1916125,98.6649701 12.2243668,98.8802126 12.2945546,98.9504003 C12.4700239,99.1235301 13.300579,99.043984 14.5265251,98.3140314 C15.5208516,97.7244543 16.0776744,97.9443759 16.3701234,98.2368249 C16.6859682,98.5550093 16.7467976,99.0322861 16.7584956,99.2592264 C16.9924548,99.6920509 17.9048955,101.500555 17.5609756,102.988536 C17.8814996,102.995554 18.4546996,102.901971 19.3226881,102.384921 C20.1766391,101.87723 20.543955,101.432707 20.6983681,101.154296 C20.1064514,100.983506 19.5004971,100.595133 18.8968824,99.9891791 C18.3470784,99.4417146 17.9563666,98.8708542 17.8113119,98.6439138 C17.6966719,98.5830844 17.5235421,98.4778028 17.3714686,98.3257293 C17.0532841,98.0028657 17.0158507,97.6823416 17.0439258,97.4694388 C17.0953968,97.0529914 17.4135813,96.6763172 18.0171959,96.3183596 C19.1542375,95.6445572 19.59876,95.078376 19.638533,94.7765687 C19.6478914,94.7087205 19.6408726,94.6291744 19.5426098,94.5309116 M11.730713,99.5142419 C11.4125285,99.1960575 11.3493595,98.700064 11.5435456,98.0402992 C12.2828566,95.5416152 14.3814704,94.2712169 14.4703749,94.2174063 C14.5756565,94.1565769 17.0462654,92.7130488 19.2758963,93.4897932 C19.638533,93.6161312 19.9099257,93.7728838 20.1041118,93.9670699 C20.3614669,94.2220854 20.4714277,94.5355907 20.429315,94.8748315 C20.3240334,95.7124054 19.2805755,96.4961686 18.4242849,97.00386 C18.0101772,97.2518567 17.8464057,97.4554012 17.8347078,97.5677016 C17.827689,97.6215122 17.8604433,97.6870208 17.9353102,97.7595481 C18.0663274,97.8929049 18.2441363,97.972451 18.2464759,97.972451 L18.3611159,98.023922 L18.4266245,98.1315432 C18.4313037,98.138562 18.8407322,98.8076852 19.460724,99.4253375 C20.0830554,100.050008 20.7007077,100.403287 21.2458325,100.445399 L21.5944317,100.475814 L21.6108088,100.824413 C21.615488,100.936714 21.6108088,101.954436 19.7297771,103.070421 C17.8464057,104.188746 16.933965,103.676376 16.8357021,103.615546 L16.5455927,103.430719 L16.6836287,103.117213 C17.1819617,101.996549 16.3701234,100.174007 16.0145054,99.565713 L15.9583552,99.4651105 L15.9630344,99.3504705 C15.965374,99.2264722 15.9302801,98.9270044 15.8039422,98.8006665 C15.6799438,98.6743285 15.3547405,98.7491955 14.933614,98.9995318 C14.2317365,99.4159791 12.5168158,100.300345 11.730713,99.5142419" id="Fill-14" fill="#FEFEFE"></path>
                        <path d="M23.449494,74.5964202 C23.3769666,74.5238928 23.2248932,74.413932 22.9207463,74.3063108 C21.0397145,73.6512251 18.8100836,74.9543777 18.7866877,74.9684153 C18.7679709,74.9801132 16.8658829,76.1405507 16.2154763,78.3327482 C16.0984968,78.7304788 16.131251,78.9457212 16.2014388,79.015909 C16.3769082,79.1890388 17.2074632,79.1094926 18.4334093,78.37954 C19.4300754,77.7876233 19.9868982,78.0098845 20.2770076,78.3023335 C20.5928525,78.620518 20.6536819,79.0977947 20.6653798,79.3247351 C20.9016786,79.7575596 21.8117798,81.566064 21.4701994,83.0540443 C21.7883839,83.0610631 22.3615838,82.9674794 23.2295724,82.4504296 C24.0858629,81.9427382 24.4531788,81.4982158 24.6052523,81.2198044 C24.0133356,81.0490142 23.4073813,80.660642 22.8061063,80.0546877 C22.2563022,79.5072232 21.8632508,78.9363629 21.7181961,78.7094225 C21.6035561,78.6485931 21.4327659,78.5433114 21.2783529,78.391238 C20.9601684,78.0683743 20.9227349,77.7478503 20.95081,77.5349474 C21.002281,77.1185001 21.3204655,76.7418258 21.9264198,76.3838683 C23.0611218,75.7100659 23.5056442,75.1438847 23.5454173,74.8420773 C23.5547756,74.7742292 23.5477568,74.694683 23.449494,74.5964202 M15.6375972,79.5797506 C15.3194127,79.2615661 15.2562437,78.7655727 15.4527694,78.1058078 C16.1897408,75.6071238 18.2906942,74.3367255 18.3795987,74.2829149 C18.4825407,74.2220855 20.9554892,72.7785574 23.1851201,73.5553019 C23.5477568,73.6816398 23.8168099,73.8383925 24.0133356,74.0325786 C24.2683511,74.2875941 24.3783119,74.6010994 24.3361993,74.9403402 C24.2309176,75.777914 23.1897993,76.5593377 22.3311691,77.0693686 C21.9170614,77.3150258 21.75329,77.5209099 21.741592,77.6332103 C21.7345732,77.6870209 21.7673275,77.7525294 21.8421945,77.8250568 C21.9732116,77.9584135 22.1533602,78.0379596 22.1533602,78.0379596 L22.2680002,78.0894306 L22.3358483,78.1970519 C22.3381879,78.2040706 22.7476165,78.8731939 23.3676083,79.4908461 C23.9899397,80.1155171 24.6075919,80.4687954 25.1527168,80.5109081 L25.5013159,80.5413228 L25.5176931,80.889922 C25.5247119,81.0022224 25.5176931,82.0199448 23.6390009,83.13593 C21.75329,84.2542549 20.8408492,83.7418843 20.7425864,83.6810549 L20.452477,83.4962271 L20.5905129,83.1827218 C21.1894484,81.8374566 19.9354272,79.6522779 19.9213897,79.628882 L19.8652395,79.5306192 L19.8699186,79.4159792 C19.8722582,79.2919808 19.8371644,78.9901735 19.7108264,78.8661751 C19.5891676,78.7398371 19.2616248,78.8147041 18.8428379,79.0650404 C18.1409603,79.4814877 16.4237,80.3658534 15.6375972,79.5797506" id="Fill-16" fill="#FEFEFE"></path>
                        <path d="M46.8112533,67.8368717 C46.6568402,67.6824587 46.4041643,67.6824587 46.2497513,67.8368717 C46.0929986,67.9912848 46.0929986,68.2439607 46.2497513,68.4007134 C46.4041643,68.557466 46.6568402,68.557466 46.8112533,68.4007134 C46.9656663,68.2439607 46.9656663,67.9912848 46.8112533,67.8368717 M45.6859097,68.964555 C45.2179913,68.4989762 45.2179913,67.7386089 45.6859097,67.2730301 C46.1514884,66.8074514 46.9095161,66.8074514 47.3750949,67.2730301 C47.8406737,67.7386089 47.8406737,68.4989762 47.3750949,68.964555 C46.9095161,69.4301337 46.1514884,69.4301337 45.6859097,68.964555" id="Fill-18" fill="#FEFEFE"></path>
                        <path d="M40.3156108,110.050125 C40.1611977,109.895712 39.9061822,109.895712 39.7517692,110.050125 C39.5950165,110.204538 39.5950165,110.459554 39.7517692,110.613967 C39.9061822,110.77072 40.1611977,110.77072 40.3156108,110.613967 C40.4700239,110.459554 40.4700239,110.204538 40.3156108,110.050125 M39.1879276,111.177809 C38.7200092,110.71223 38.7200092,109.951863 39.1879276,109.486284 C39.6558459,109.020705 40.4138737,109.020705 40.8794524,109.486284 C41.3450312,109.951863 41.3450312,110.71223 40.8794524,111.177809 C40.4138737,111.643387 39.6558459,111.643387 39.1879276,111.177809" id="Fill-20" fill="#FEFEFE"></path>
                        <path d="M50.8049364,107.222729 C50.6505233,107.068316 50.3978474,107.068316 50.2434344,107.222729 C50.0866817,107.377142 50.0866817,107.629818 50.2434344,107.78657 C50.3978474,107.940983 50.6528629,107.940983 50.8049364,107.78657 C50.961689,107.629818 50.961689,107.377142 50.8049364,107.222729 M49.6795928,108.350412 C49.2116744,107.884833 49.2116744,107.124466 49.6795928,106.658887 C50.1451715,106.193308 50.9031992,106.193308 51.368778,106.658887 C51.8343567,107.124466 51.8343567,107.884833 51.368778,108.350412 C50.9031992,108.815991 50.1451715,108.815991 49.6795928,108.350412" id="Fill-22" fill="#FEFEFE"></path>
                        <path d="M17.8267532,85.3073051 C17.6723401,85.152892 17.4173246,85.152892 17.2629116,85.3073051 C17.1061589,85.4617182 17.1061589,85.7143941 17.2629116,85.8711467 C17.4173246,86.0255598 17.6723401,86.0255598 17.8267532,85.8711467 C17.9811662,85.7143941 17.9811662,85.4617182 17.8267532,85.3073051 M16.7014096,86.4349883 C16.2334912,85.9694096 16.2334912,85.2090423 16.7014096,84.7434635 C17.1669883,84.2778847 17.925016,84.2778847 18.3905948,84.7434635 C18.8561735,85.2090423 18.8561735,85.9694096 18.3905948,86.4349883 C17.925016,86.9005671 17.1669883,86.9005671 16.7014096,86.4349883" id="Fill-24" fill="#FEFEFE"></path>
                        <path d="M39.1619581,98.9667775 C39.0075451,98.8123644 38.7525296,98.8123644 38.5981165,98.9667775 C38.4413639,99.1211905 38.4413639,99.3738664 38.5981165,99.5306191 C38.7525296,99.6850321 39.0075451,99.6850321 39.1619581,99.5306191 C39.3163712,99.3738664 39.3163712,99.1211905 39.1619581,98.9667775 M38.0342749,100.094461 C37.5663566,99.6288819 37.5663566,98.8685146 38.0342749,98.4029359 C38.4998537,97.9373571 39.260221,97.9373571 39.7257997,98.4029359 C40.1913785,98.8685146 40.1913785,99.6288819 39.7257997,100.094461 C39.260221,100.560039 38.4998537,100.560039 38.0342749,100.094461" id="Fill-26" fill="#FEFEFE"></path>
                        <path d="M32.1820201,87.4709595 C32.0276071,87.3142069 31.7725916,87.3142069 31.6181785,87.4709595 C31.4614259,87.6253726 31.4614259,87.8780485 31.6181785,88.0348011 C31.7725916,88.1892142 32.0276071,88.1892142 32.1820201,88.0348011 C32.3364332,87.8780485 32.3364332,87.6253726 32.1820201,87.4709595 M31.0543369,88.5963032 C30.5864186,88.1307244 30.5864186,87.3726967 31.0543369,86.9071179 C31.5199157,86.4415392 32.2779434,86.4415392 32.7435222,86.9071179 C33.2091009,87.3726967 33.2091009,88.1307244 32.7435222,88.5963032 C32.2779434,89.0642215 31.5199157,89.0642215 31.0543369,88.5963032" id="Fill-28" fill="#FEFEFE"></path>
                        <path d="M54.7347486,78.0154995 C54.5803356,77.8610865 54.3276597,77.8610865 54.1732466,78.0154995 C54.016494,78.1699126 54.016494,78.4249281 54.1732466,78.5793412 C54.3276597,78.7360938 54.5803356,78.7360938 54.7347486,78.5793412 C54.8915013,78.4249281 54.8915013,78.1699126 54.7347486,78.0154995 M53.609405,79.1431828 C53.1414866,78.677604 53.1414866,77.9172367 53.609405,77.4516579 C54.0749837,76.9860792 54.8330115,76.9860792 55.2985902,77.4516579 C55.764169,77.9172367 55.764169,78.677604 55.2985902,79.1431828 C54.8330115,79.6087615 54.0749837,79.6087615 53.609405,79.1431828" id="Fill-30" fill="#FEFEFE"></path>
                        <path d="M28.761771,67.0416445 C28.6073579,66.8872315 28.3523424,66.8872315 28.1979294,67.0416445 C28.0411767,67.1960576 28.0411767,67.4487335 28.1979294,67.6054861 C28.3523424,67.7598992 28.6073579,67.7598992 28.761771,67.6054861 C28.916184,67.4487335 28.916184,67.1960576 28.761771,67.0416445 M27.6364274,68.1693277 C27.168509,67.7014094 27.168509,66.9433817 27.6364274,66.4778029 C28.1020061,66.0122242 28.8600338,66.0122242 29.3256126,66.4778029 C29.7911913,66.9433817 29.7911913,67.7014094 29.3256126,68.1693277 C28.8600338,68.6349065 28.1020061,68.6349065 27.6364274,68.1693277" id="Fill-32" fill="#FEFEFE"></path>
                        <path d="M60.8190909,88.4201319 C60.6646778,88.2657189 60.4096623,88.2657189 60.2552493,88.4201319 C60.0984966,88.574545 60.0984966,88.8272209 60.2552493,88.9839735 C60.4096623,89.1383866 60.6646778,89.1383866 60.8190909,88.9839735 C60.9735039,88.8272209 60.9735039,88.574545 60.8190909,88.4201319 M59.6914077,89.5478151 C59.2234893,89.0798968 59.2234893,88.3218691 59.6914077,87.8562903 C60.1569864,87.3907115 60.9150141,87.3907115 61.3805929,87.8562903 C61.8485112,88.3218691 61.8485112,89.0798968 61.3805929,89.5478151 C60.9150141,90.0133939 60.1569864,90.0133939 59.6914077,89.5478151" id="Fill-34" fill="#FEFEFE"></path>
                        <path d="M17.7263847,107.872667 C17.5719716,107.718254 17.3192957,107.718254 17.1648827,107.872667 C17.00813,108.02708 17.00813,108.282096 17.1648827,108.436509 C17.3192957,108.593262 17.5719716,108.593262 17.7263847,108.436509 C17.8807977,108.282096 17.8807977,108.02708 17.7263847,107.872667 M16.6010411,109.000351 C16.1331227,108.534772 16.1331227,107.774405 16.6010411,107.308826 C17.0666198,106.843247 17.8246475,106.843247 18.2902263,107.308826 C18.7558051,107.774405 18.7558051,108.534772 18.2902263,109.000351 C17.8246475,109.465929 17.0666198,109.465929 16.6010411,109.000351" id="Fill-36" fill="#FEFEFE"></path>
                        <g id="Group-40" transform="translate(45.452243, 0.000000)">
                            <mask id="mask-2" fill="white">
                                <use xlink:href="#path-1"></use>
                            </mask>
                            <g id="Clip-39"></g>
                            <polygon id="Fill-38" fill="#FEFEFE" mask="url(#mask-2)" points="73.6350819 77.9366553 70.2567115 76.8113117 73.8222493 73.2434343 5.32836168 4.74720709 1.76048429 8.31508449 0.635140663 4.93437443 5.32836168 0.241153415 78.328303 73.2434343"></polygon>
                        </g>
                    </g>
                </g>
            </g>
        </g>
    </g>
</svg>